HIERARCHY
ROOT Hips
{
	OFFSET 0.00000 0.00000 0.00000
	CHANNELS 6 Xposition Yposition Zposition Yrotation Zrotation Xrotation 
	JOINT Lumbar
	{
		OFFSET 0 0 0
		CHANNELS 3 Zrotation Xrotation Yrotation
		JOINT Neck
		{
			OFFSET 0.00 0.2701 0.00
			CHANNELS 3 Zrotation Xrotation Yrotation
			End Site
			{
				OFFSET 0.00 0.1379 0.00
			}
		}
		JOINT RightShoulder
		{
			OFFSET 0.0119 0.2289 0.1181
			CHANNELS 3 Zrotation Xrotation Yrotation
			JOINT RightElbow
			{
				OFFSET 0.00 -0.1475 0.00
				CHANNELS 2 Zrotation Yrotation
				JOINT RightWrist
				{
					OFFSET 0.00 -0.1605 0.00
					CHANNELS 2 Zrotation Xrotation
					End Site
					{
						OFFSET 0.0040 -0.1068 0.0006
					}
				}
			}
		}
		JOINT LeftShoulder
		{
			OFFSET 0.0119 0.2289 -0.1181
			CHANNELS 3 Zrotation Xrotation Yrotation
			JOINT LeftElbow
			{
				OFFSET 0.00 -0.1475 0.00
				CHANNELS 2 Zrotation Yrotation
				JOINT LeftWrist
				{
					OFFSET 0.00 -0.1605 0.00
					CHANNELS 2 Zrotation Xrotation
					End Site
					{
						OFFSET 0.0040 -0.1068 -0.0006
					}
				}
			}
		}
	}
	JOINT RightHip
	{
		OFFSET 0.0316 -0.0424 0.0458
		CHANNELS 3 Zrotation Xrotation Yrotation
		JOINT RightKnee
		{
			OFFSET 0.00 -0.2438 0.00
			CHANNELS 1 Zrotation
			JOINT RightAnkle
			{
				OFFSET 0.00 -0.2449 0.00
				CHANNELS 3 Zrotation Xrotation Yrotation
				End Site
				{
					OFFSET 0.1237 -0.0542 0.0051
				}
			}
		}
	}
	JOINT LeftHip
	{
		OFFSET 0.0316 -0.0424 -0.0458
		CHANNELS 3 Zrotation Xrotation Yrotation
		JOINT LeftKnee
		{
			OFFSET 0.00 -0.2438 0.00
			CHANNELS 1 Zrotation
			JOINT LeftAnkle
			{
				OFFSET 0.00 -0.2449 0.00
				CHANNELS 3 Zrotation Xrotation Yrotation
				End Site
				{
					OFFSET 0.1237 -0.0542 -0.0051
				}
			}
		}
	}
}
MOTION
Frames: 23
Frame Time: 0.02
-0 0.57926 0 182.38407 0 -3.41201 3.66322 2.1087 -1.10034 -35.96186 6.19006 0.43237 -17.37125 -75.3291 -80.81031 21.40918 77.5995 -15.61252 -2.72838 -4.42833 71.80355 72.40929 25.28764 -67.66231 -31.16532 2.06838 -1.41415 3.29715 7.15324 -8.49067 -1.80609 -3.57937 -6.4929 -0.13443 2.88187 -0.43484 -8.54979 5.79981 2.10613 -0.11674
9e-05 0.57927 -8e-05 182.38104 0 -3.41138 3.61851 2.10596 -1.11358 -35.94779 6.19617 0.42785 -17.20606 -75.27502 -80.63253 21.40199 77.55275 -15.55989 -2.68963 -4.25103 71.76559 72.25585 25.26771 -67.49105 -31.10558 2.04103 -1.39645 3.30503 7.1767 -8.5061 -1.81284 -3.60374 -6.50552 -0.1268 2.88711 -0.43618 -8.54718 5.7879 2.1104 -0.10536
0.00018 0.57927 -0.00015 182.378 0 -3.41073 3.57388 2.10322 -1.12749 -35.93399 6.20203 0.42388 -17.04244 -75.22154 -80.45669 21.39482 77.506 -15.50784 -2.65121 -4.07524 71.72743 72.10412 25.24829 -67.32047 -31.04584 2.01375 -1.37874 3.31284 7.20009 -8.52163 -1.81943 -3.62795 -6.51812 -0.11915 2.89229 -0.43741 -8.54467 5.7761 2.11466 -0.09414
0.00027 0.57928 -0.00023 182.37502 0 -3.41011 3.52933 2.10057 -1.14118 -35.92058 6.20878 0.41952 -16.88264 -75.16996 -80.28578 21.38746 77.4588 -15.45758 -2.61371 -3.90311 71.68804 71.95678 25.2308 -67.15103 -30.98533 1.98642 -1.36126 3.32056 7.22312 -8.53677 -1.82596 -3.65167 -6.53066 -0.11138 2.89744 -0.43817 -8.54243 5.76459 2.11883 -0.08361
0.00036 0.57929 -0.00031 182.37187 0 -3.4095 3.48457 2.09756 -1.15244 -35.90444 6.21296 0.41419 -16.70161 -75.10835 -80.08743 21.38088 77.41401 -15.39783 -2.57131 -3.71082 71.65513 71.78509 25.20322 -66.97562 -30.92866 1.95926 -1.34307 3.32886 7.24765 -8.55287 -1.8334 -3.67787 -6.54341 -0.10429 2.90293 -0.44137 -8.53861 5.75153 2.12337 -0.06961
0.00045 0.57929 -0.00038 182.369 0 -3.40876 3.44017 2.09523 -1.17126 -35.89451 6.2211 0.41296 -16.56633 -75.06798 -79.94818 21.3728 77.36414 -15.35823 -2.53936 -3.56186 71.60857 71.66581 25.19693 -66.81295 -30.86407 1.9318 -1.32604 3.33586 7.26926 -8.56767 -1.83852 -3.69891 -6.55577 -0.09573 2.90756 -0.43941 -8.53827 5.74177 2.12716 -0.06282
0.00054 0.57929 -0.00042 182.36756 0 -3.40862 3.39645 2.09553 -1.19102 -35.89849 6.25388 0.40548 -16.55268 -75.08758 -79.96695 21.359 77.29867 -15.37515 -2.53598 -3.52882 71.52144 71.68692 25.25184 -66.68335 -30.77404 1.9027 -1.31513 3.34007 7.28085 -8.57251 -1.84047 -3.70492 -6.56665 -0.08326 2.91108 -0.42262 -8.54672 5.7411 2.12871 -0.07774
0.00062 0.57929 -0.00044 182.36632 0 -3.40819 3.3531 2.0964 -1.22158 -35.90932 6.28852 0.4049 -16.58603 -75.12838 -80.04637 21.34395 77.22834 -15.41231 -2.54318 -3.54018 71.42093 71.76169 25.32785 -66.56722 -30.67672 1.87346 -1.30495 3.34284 7.28981 -8.57702 -1.83956 -3.70585 -6.5772 -0.06931 2.91351 -0.40072 -8.55884 5.74377 2.12953 -0.09965
0.0007 0.57929 -0.00047 182.36452 0 -3.40724 3.30969 2.09648 -1.26091 -35.91916 6.31303 0.41316 -16.60097 -75.15864 -80.10141 21.3305 77.16108 -15.43962 -2.54573 -3.53359 71.32838 71.81487 25.3927 -66.44571 -30.58472 1.84472 -1.29237 3.34578 7.30137 -8.58607 -1.83778 -3.70967 -6.58823 -0.05593 2.91562 -0.3815 -8.56986 5.74491 2.13081 -0.11719
0.00079 0.57929 -0.0005 182.36458 0 -3.40896 3.26579 2.09865 -1.24472 -35.92009 6.37536 0.37275 -16.60361 -75.19278 -80.1429 21.31276 77.08991 -15.46952 -2.54767 -3.51753 71.2281 71.85655 25.46416 -66.31964 -30.48357 1.81394 -1.28802 3.35075 7.30732 -8.57736 -1.84489 -3.71115 -6.59799 -0.04289 2.92114 -0.3607 -8.57853 5.74605 2.13157 -0.13966
0.00087 0.57928 -0.00052 182.36095 0 -3.40516 3.22306 2.09676 -1.34395 -35.94113 6.36106 0.43298 -16.64285 -75.2238 -80.22715 21.30359 77.02608 -15.49905 -2.5533 -3.53184 71.14053 71.93456 25.52685 -66.20809 -30.4006 1.78766 -1.2673 3.35116 7.32394 -8.6046 -1.83315 -3.71615 -6.61016 -0.02891 2.91937 -0.34204 -8.59289 5.74806 2.13323 -0.15363
0.00091 0.57927 -0.00053 182.34603 0 -3.38532 3.18299 2.08224 -1.78345 -36.01642 6.12012 0.79002 -16.7731 -75.24181 -80.41307 21.31888 76.98071 -15.52076 -2.56747 -3.61829 71.09262 72.10307 25.56072 -66.11756 -30.36235 1.77141 -1.19611 3.33925 7.37394 -8.73945 -1.76702 -3.7336 -6.63055 -0.01163 2.89705 -0.32993 -8.62279 5.75105 2.13768 -0.14156
0.00094 0.57926 -0.00053 182.32754 0 -3.36011 3.14415 2.06385 -2.33433 -36.11155 5.80467 1.24436 -16.93814 -75.25579 -80.63995 21.3428 76.94342 -15.5417 -2.58484 -3.73397 71.05747 72.30586 25.58514 -66.04401 -30.3439 1.76013 -1.10934 3.32281 7.43423 -8.90899 -1.6826 -3.75453 -6.65314 0.00636 2.86757 -0.32024 -8.65822 5.75494 2.14307 -0.12083
0.00096 0.57925 -0.00052 182.31145 0 -3.33792 3.10513 2.04801 -2.81823 -36.19739 5.53298 1.64053 -17.08656 -75.27115 -80.84945 21.3624 76.9044 -15.56429 -2.6001 -3.83673 71.01597 72.49058 25.61323 -65.97315 -30.32126 1.74823 -1.03305 3.30846 7.48755 -9.0572 -1.60854 -3.77287 -6.6737 0.02328 2.84181 -0.30988 -8.69059 5.75881 2.14795 -0.10466
0.00102 0.57923 -0.00053 182.2923 0 -3.31324 3.06469 2.02877 -3.37116 -36.28491 5.21981 2.09543 -17.24077 -75.28927 -81.05697 21.38343 76.85708 -15.58233 -2.61838 -3.93929 70.97738 72.68698 25.64376 -65.85927 -30.27847 1.72956 -0.94254 3.29389 7.55011 -9.22877 -1.52569 -3.7952 -6.69842 0.04331 2.81403 -0.29761 -8.72516 5.76106 2.1531 -0.08619
0.00102 0.57922 -0.00052 182.27843 0 -3.29253 3.02727 2.01577 -3.80716 -36.37319 4.97502 2.45154 -17.38963 -75.30024 -81.27616 21.40381 76.82894 -15.60911 -2.63112 -4.04888 70.93464 72.86738 25.66784 -65.83828 -30.28196 1.726 -0.8778 3.27878 7.59636 -9.36008 -1.45691 -3.81024 -6.71521 0.05712 2.78878 -0.28987 -8.75668 5.76696 2.15799 -0.07022
0.00086 0.57921 -0.00044 182.28221 0 -3.28352 2.99972 2.02023 -3.88817 -36.46156 4.93993 2.50642 -17.5228 -75.29351 -81.52893 21.41825 76.85259 -15.66247 -2.62644 -4.16822 70.88792 72.98727 25.66729 -66.07489 -30.41263 1.76432 -0.88919 3.26285 7.59084 -9.37039 -1.4309 -3.80317 -6.70769 0.05267 2.77214 -0.29483 -8.77615 5.78199 2.1614 -0.0645
0.00066 0.57919 -0.00034 182.29108 0 -3.27878 2.97475 2.03121 -3.84852 -36.54932 4.97579 2.45931 -17.64746 -75.27926 -81.78938 21.43232 76.89502 -15.72413 -2.6162 -4.29373 70.83433 73.09104 25.66261 -66.40349 -30.58845 1.81746 -0.92682 3.24663 7.56925 -9.33926 -1.41979 -3.78887 -6.69245 0.04214 2.75831 -0.30425 -8.79281 5.8008 2.16465 -0.06127
0.00048 0.57917 -0.00025 182.29612 0 -3.27248 2.94748 2.03966 -3.86722 -36.63556 4.97737 2.46193 -17.7712 -75.26783 -82.03882 21.44765 76.9285 -15.78041 -2.60939 -4.41802 70.77743 73.20717 25.66513 -66.68627 -30.74087 1.86288 -0.9517 3.23086 7.55786 -9.32796 -1.40225 -3.77864 -6.68201 0.03494 2.74332 -0.31099 -8.81217 5.81837 2.16827 -0.05616
0.00029 0.57916 -0.00017 182.30725 0 -3.26444 2.92531 2.04621 -3.87492 -36.73051 4.98474 2.45383 -17.91761 -75.25938 -82.32242 21.45785 76.96448 -15.84343 -2.5991 -4.53728 70.74954 73.30345 25.64304 -66.98601 -30.90613 1.91249 -0.97956 3.21363 7.53494 -9.31359 -1.38266 -3.76525 -6.66626 0.02522 2.72766 -0.32008 -8.82552 5.83398 2.17053 -0.05417
0.0001 0.57914 -7e-05 182.30719 0 -3.26105 2.89273 2.05823 -3.87546 -36.8064 4.99812 2.44236 -18.01278 -75.24224 -82.53498 21.47957 76.99899 -15.89441 -2.59444 -4.66733 70.65763 73.43658 25.67365 -67.27282 -31.05513 1.95702 -1.00759 3.19938 7.53167 -9.29545 -1.37107 -3.75666 -6.65959 0.01949 2.71406 -0.32591 -8.85086 5.85451 2.17574 -0.04606
-8e-05 0.57913 0.0001 182.27292 0 -3.2699 2.83386 2.08459 -3.88488 -36.83394 5.00897 2.44777 -17.9806 -75.20887 -82.55812 21.52505 77.03072 -15.91012 -2.60911 -4.8317 70.40532 73.67617 25.83211 -67.49477 -31.14786 1.98224 -1.03048 3.19398 7.59008 -9.27564 -1.37857 -3.76322 -6.68092 0.02461 2.7064 -0.31631 -8.90801 5.88787 2.18768 -0.02342
-0.00027 0.57911 0.0003 182.2276 0 -3.28323 2.76378 2.11615 -3.89081 -36.84137 5.02408 2.45253 -17.89415 -75.16565 -82.50703 21.58417 77.05957 -15.91358 -2.6293 -5.00525 70.08565 73.95245 26.04792 -67.70171 -31.22269 2.00211 -1.05259 3.19151 7.66811 -9.25349 -1.39359 -3.77481 -6.71143 0.03419 2.70059 -0.30405 -8.97751 5.92597 2.2028 0.0058
